<svg xmlns="http://www.w3.org/2000/svg" viewBox="0 0 168.66 64"><defs><style>.cls-1{fill:#fff;}.cls-2{fill:#00b0f1;}.cls-3{fill:#404b56;}</style></defs><title>heimdal_blue_logo</title><g id="Layer_2" data-name="Layer 2"><g id="Layer_1-2" data-name="Layer 1"><path class="cls-1" d="M150.68,38h9.81V35.8h-7.24V24.13h-2.57Zm-13.87-5.23,2.59-6.05L142,32.75ZM144.25,38h2.69l-6.25-13.85h-2.54L131.92,38h2.65l1.37-3.21h6.92ZM118.33,35.8V26.31h3.37a5.87,5.87,0,0,1,2.68.58,4.2,4.2,0,0,1,1.78,1.66,5.35,5.35,0,0,1,0,5,4.23,4.23,0,0,1-1.78,1.67,5.87,5.87,0,0,1-2.68.58ZM115.76,38h6.06a8.71,8.71,0,0,0,3.93-.86,6.38,6.38,0,0,0,2.67-2.44,7.41,7.41,0,0,0,0-7.26A6.29,6.29,0,0,0,125.75,25a8.71,8.71,0,0,0-3.93-.86h-6.06Zm-5.71,0,0-13.85h-2.12l-5.4,9.18L97,24.13H94.89V38h2.46V28.92l4.55,7.47H103l4.55-7.59,0,9.18ZM86.61,38h2.57V24.13H86.61ZM74,35.82V32h6.68V29.89H74v-3.6h7.53V24.13H71.38V38H81.76V35.82ZM63.11,24.13v5.72H56V24.13H53.38V38H56V32h7.16V38h2.57V24.13Z"/><path class="cls-1" d="M167.79,28h.87V24.09h-1.18l-1,2.15-1-2.15h-1.19V28h.88V25.54l1,2.14h.53l1.06-2.14Zm-4.15-3.17v-.75h-3.1v.75h1.11V28h.88V24.84Z"/><path class="cls-2" d="M142.12,47l1.7-3h-1.19l-1,1.82L140.52,44h-1.19l1.7,3v1.94h1.09Zm-8.37-2V44h-3.87v.94h1.39v4h1.09v-4Zm-11.23,4h1.09V44h-1.09Zm-8.67-2.51h-.8V44.93h.82a1.46,1.46,0,0,1,.74.14.63.63,0,0,1,.21.55.74.74,0,0,1-.2.57A1.14,1.14,0,0,1,113.85,46.38Zm1.6-2a2.73,2.73,0,0,0-1.63-.38H112v4.9h1.09V47.32h.76l1.09,1.57h1.34L115,47.13a1.43,1.43,0,0,0,.93-1.52A1.5,1.5,0,0,0,115.45,44.37Zm-13.19,2.32V44h-1.1v2.74a2.18,2.18,0,0,0,.59,1.63,2.1,2.1,0,0,0,1.51.57,2.07,2.07,0,0,0,1.51-.57,2.17,2.17,0,0,0,.59-1.63V44h-1.09v2.7a1.47,1.47,0,0,1-.27.93,1,1,0,0,1-1.47,0A1.47,1.47,0,0,1,102.26,46.69Zm-10.38.82a1.53,1.53,0,0,1-.41-1.1,1.42,1.42,0,0,1,.44-1.09,1.48,1.48,0,0,1,1-.4,1.57,1.57,0,0,1,1.29.64l.68-.77a2.58,2.58,0,0,0-2-.91,2.52,2.52,0,0,0-1.82.72,2.6,2.6,0,0,0,0,3.63,2.59,2.59,0,0,0,1.87.71,2.53,2.53,0,0,0,2-.94l-.7-.72a1.6,1.6,0,0,1-1.31.64A1.4,1.4,0,0,1,91.88,47.51ZM80.59,44v4.9H84.2v-1H81.68v-1h2.19V46H81.68V45h2.44V44Zm-8.36.85a2.14,2.14,0,0,1,1.31.48l.56-.8a2.77,2.77,0,0,0-.86-.48,3,3,0,0,0-1-.16,2,2,0,0,0-1.25.37,1.29,1.29,0,0,0-.5,1.08,1.22,1.22,0,0,0,.4,1,3,3,0,0,0,1.25.53,2.59,2.59,0,0,1,.72.26.42.42,0,0,1,.18.35.45.45,0,0,1-.17.36.82.82,0,0,1-.47.12A2.34,2.34,0,0,1,71,47.28l-.65.8a3,3,0,0,0,2.09.86,1.91,1.91,0,0,0,1.3-.41,1.32,1.32,0,0,0,.5-1.07,1.26,1.26,0,0,0-.39-1A2.37,2.37,0,0,0,72.72,46a4.08,4.08,0,0,1-.89-.3.39.39,0,0,1-.19-.34A.43.43,0,0,1,71.8,45,.67.67,0,0,1,72.23,44.84Z"/><path class="cls-1" d="M40.7,24.79v0h0a18.62,18.62,0,0,0-.83-3.47h0V21.2l-3-7.75a1.93,1.93,0,0,0-.75-.94A2,2,0,0,0,35,12.2h0a1.92,1.92,0,0,0-1.27.49l-.12.11A17.75,17.75,0,0,0,23,9.29a17.16,17.16,0,0,0-3.2.29l-1.2-2.21a2.12,2.12,0,0,0-1-.93L2.91.17A2.16,2.16,0,0,0,2.08,0,2.12,2.12,0,0,0,.6.62,2.09,2.09,0,0,0,0,2.07H0a2.11,2.11,0,0,0,.26,1l5.25,9.64a2.09,2.09,0,0,0,1,.93h0l.07,0,.35.13,1.54,2.83A17.92,17.92,0,0,0,6.87,34.89v3.45A2,2,0,0,0,7.5,39.8l.16.14,0,.12a19.23,19.23,0,0,0-5.31,6.08A2.35,2.35,0,0,0,2,47.27a2.38,2.38,0,0,0,.37,1.27c.31.49.59,1,.82,1.42a11.39,11.39,0,0,1,.68,1.6A4.55,4.55,0,0,1,4.18,53a1.39,1.39,0,0,1-.06.46l0,.1c-.09.17-.19.33-.27.51l-.34.69a.85.85,0,0,0-.09.41h0a2.08,2.08,0,0,0,1.47,2l14.25,6.39a5.87,5.87,0,0,0,2.37.51A5.71,5.71,0,0,0,24,63.41L37.56,56.8a1.92,1.92,0,0,0,1.06-1.75,10,10,0,0,0-.17-1.64h.15a2.07,2.07,0,0,0,2.07-2.09v-.18L39.52,39a2.1,2.1,0,0,0,.35-1.15V36.56l.18-.17a2.1,2.1,0,0,0,.59-1.46,2.08,2.08,0,0,0-.09-.6h0l-1.42-4.6v-.54a2.09,2.09,0,0,0,1.58-2V24.79Z"/><path class="cls-2" d="M16.33,24.23H12.89a.56.56,0,0,0-.57.56h0a.57.57,0,0,0,.57.57h3.44"/><path class="cls-2" d="M17.56,27.68H14.11a.56.56,0,0,0-.56.56h0a.57.57,0,0,0,.56.57h3.45"/><path class="cls-2" d="M34.93,18.4H31.49a.56.56,0,0,0-.56.56h0a.56.56,0,0,0,.56.56h3.44"/><path class="cls-2" d="M34.93,21.85H31.49a.56.56,0,0,0-.56.56h0a.56.56,0,0,0,.56.56h3.44"/><polygon class="cls-3" points="1.43 2.45 1.43 2.44 1.43 2.44 1.43 2.45"/><path class="cls-3" d="M38.62,27.91a.76.76,0,0,0,.76-.75V24.91a17.18,17.18,0,0,0-.77-3.22h0l-3-7.76h0a.67.67,0,0,0-.24-.29.57.57,0,0,0-.32-.1.59.59,0,0,0-.41.16.61.61,0,0,0-.2.44v1.1A16.43,16.43,0,0,0,23,10.62a16.14,16.14,0,0,0-3.9.47L17.42,8a.77.77,0,0,0-.36-.33L2.38,1.39a.77.77,0,0,0-.3-.06.72.72,0,0,0-.53.23.73.73,0,0,0-.22.52.79.79,0,0,0,.1.37l5.25,9.64h0a.83.83,0,0,0,.41.35h0l.82.29,2.21,4.05A16.52,16.52,0,0,0,8.25,34.66a.69.69,0,0,0,0,.25v3.43a.66.66,0,0,0,.2.49.71.71,0,0,0,.76.12l-.3,1.87a17.65,17.65,0,0,0-5.37,6h0a1.06,1.06,0,0,0,0,1.06c.24.37.57.92.88,1.52a12,12,0,0,1,.77,1.8A5.83,5.83,0,0,1,5.51,53a2.63,2.63,0,0,1-.14.91,1.84,1.84,0,0,1-.44.71h0a.75.75,0,0,0-.23.53.77.77,0,0,0,.2.52.72.72,0,0,0,.4.22l14.34,6.44a4.45,4.45,0,0,0,1.82.39,4.37,4.37,0,0,0,2-.46L37,55.6a.58.58,0,0,0,.32-.52h0A9.37,9.37,0,0,0,36,50.59L38.19,52a.72.72,0,0,0,.4.12.76.76,0,0,0,.52-.21.75.75,0,0,0,.23-.54v-.07l-1.2-12.71a.75.75,0,0,0,.39-.66V35.68h0a.68.68,0,0,0,.53-.22.73.73,0,0,0,.22-.53.6.6,0,0,0,0-.22L37.8,29.92v-2Zm-1.08-5.84A16.07,16.07,0,0,1,38.25,25v1.76H27.57l-1-1.86h8.24a.75.75,0,0,0,.75-.75V17ZM31.27,40.53a.74.74,0,0,0,.51.2.7.7,0,0,0,.5-.19h0l1.61-1.36a2.3,2.3,0,0,1,1.49-.55H37l1.13,12-3.75-2.36-1.68-3.09-1,.54L32.44,47l-1.92-1.21-1.84-3.37-1,.53.87,1.61-5.45-3.43V38.36l.7,1.28a.74.74,0,0,0,.66.39h0l5.35,0a.71.71,0,0,0,.54-.23.76.76,0,0,0,.21-.52.71.71,0,0,0-.12-.39h0l-1.89-3,2.57.92a2.76,2.76,0,0,0-.12.82V40A.76.76,0,0,0,31.27,40.53Zm-1.75-1.07ZM23,11.75a15.35,15.35,0,0,1,11.44,5.09v7H26L19.64,12.11A15.42,15.42,0,0,1,23,11.75ZM10.7,17.85l1.56,2.86h0a.76.76,0,0,0,.4.35l1.28.46,3.32,6.09,1-.54-2.71-5,1.48.54.38-1.06h0l-4.21-1.53L9.5,13.3l2.07.73L12,13,7.6,11.42,2.93,2.86,16.49,8.65l10.27,19-.68,6h0v.08a.77.77,0,0,0,.11.4l3,4.77-4.47,0L21,32.14l-1,.54h0l2,3.62v3.29a12.07,12.07,0,0,0-1.23-.06,38.62,38.62,0,0,0-6.66.78c-1.73.33-3.26.68-4.15.9l.47-3,9.48-5.67-.58-1h0l-10,6V35.16l8.51-5-.57-1L9.16,34A15.44,15.44,0,0,1,10.7,17.85ZM7.86,43.06c.4-.36.76-.66,1-.88a.76.76,0,0,0,.58.28l.18,0h0c.66-.17,2.49-.62,4.63-1a37.4,37.4,0,0,1,6.45-.77,11.36,11.36,0,0,1,1.23.07v.39C13.6,45.92,8.57,46.75,6.11,46.75a8,8,0,0,1-1.25-.08A16.74,16.74,0,0,1,7.86,43.06ZM22.93,61.2a3.3,3.3,0,0,1-1.47.34,3.39,3.39,0,0,1-1.36-.29l-5.29-2.38a19.6,19.6,0,0,1,13.41-3.66l.1-1.12a20.29,20.29,0,0,0-14.67,4.26L6.16,55a25.8,25.8,0,0,1,9.16-5,31.15,31.15,0,0,1,9.07-1.3,34.66,34.66,0,0,1,5.62.45c.69.12,1.23.23,1.6.32l.42.1.1,0h0l.31-1.08a32.33,32.33,0,0,0-8.08-1A32.24,32.24,0,0,0,15,49a27.22,27.22,0,0,0-8.36,4.22c0-.08,0-.15,0-.23a7.13,7.13,0,0,0-.41-2.22A16.08,16.08,0,0,0,4.84,47.8a8.83,8.83,0,0,0,1.27.08c2.72,0,7.93-.91,16.43-5.79l10.4,6.57a8.17,8.17,0,0,1,1.6,1.71,8.44,8.44,0,0,1,1.6,4.38ZM37.41,37.52h-2a3.41,3.41,0,0,0-2.22.81l-1,.84v-1.6a1.87,1.87,0,0,1,.55-1.33A1.84,1.84,0,0,1,34,35.68h3.37Zm-.72-7.4v0l1.36,4.4H34a3,3,0,0,0-2.38,1.18l-4-1.46-.4-.64.65-5.73h8.8V30Z"/><path class="cls-3" d="M30.34,29.44v1.12h0A1.48,1.48,0,0,0,31.5,32l2.76.61.32,0a1.49,1.49,0,0,0,1.48-1.48V29.44H30.34Zm4.49,2a.35.35,0,0,1-.25.1H34.5l-2.75-.61a.36.36,0,0,1-.29-.35h3.48v.61A.34.34,0,0,1,34.83,31.42Z"/><path class="cls-3" d="M21.53,26.43a2.14,2.14,0,1,0,2.15,2.14A2.14,2.14,0,0,0,21.53,26.43Zm.91,3a1.26,1.26,0,0,1-.91.38,1.24,1.24,0,0,1-.9-.38,1.26,1.26,0,0,1,0-1.8,1.24,1.24,0,0,1,.9-.38,1.28,1.28,0,0,1,.91,2.18Z"/><path class="cls-2" d="M21.53,24a4.54,4.54,0,1,0,4.54,4.54A4.54,4.54,0,0,0,21.53,24ZM24,31a3.4,3.4,0,1,1,1-2.41A3.4,3.4,0,0,1,24,31Z"/></g></g></svg>